<?xml version="1.0"?>
<svg xmlns="http://www.w3.org/2000/svg" version="1.1" width="512" height="512" x="0" y="0" viewBox="0 0 512 512"
     style="enable-background:new 0 0 512 512" xml:space="preserve" class=""><g><link type="text/css" rel="stylesheet" id="dark-mode-custom-link"/><link type="text/css" rel="stylesheet" id="dark-mode-general-link"/><style lang="en" type="text/css" id="dark-mode-custom-style"/><style lang="en" type="text/css" id="dark-mode-native-style"/><g xmlns="http://www.w3.org/2000/svg"><g><path d="m216.247 33.295v75.914c0 18.389-14.907 33.295-33.295 33.295h-77.789l-21.438 38.725c-4.945 8.932-18.533 5.419-18.533-4.79v-33.934h-31.823c-18.389 0-33.295-14.907-33.295-33.295v-75.915c0-18.388 14.907-33.295 33.295-33.295h149.582c18.389 0 33.296 14.907 33.296 33.295z" fill="#5ac794" data-original="#9be69d" style="" class=""/><path d="m57.362 142.505h-23.993c-18.389 0-33.295-14.907-33.295-33.295v-75.915c0-18.388 14.907-33.295 33.295-33.295h23.993c-18.388 0-33.295 14.907-33.295 33.295v75.914c0 18.389 14.907 33.296 33.295 33.296z" fill="#33684b" data-original="#6fd7a3" style="" class=""/><g fill="#685e68"><path d="m146.696 38.144h-109.283c-4.268 0-7.726-3.459-7.726-7.726s3.459-7.726 7.726-7.726h109.283c4.268 0 7.726 3.459 7.726 7.726s-3.458 7.726-7.726 7.726z" fill="#f5f5f5" data-original="#685e68" style="" class=""/><path d="m146.696 71.081h-109.283c-4.268 0-7.726-3.459-7.726-7.726s3.459-7.726 7.726-7.726h109.283c4.268 0 7.726 3.459 7.726 7.726.001 4.267-3.458 7.726-7.726 7.726z" fill="#f5f5f5" data-original="#685e68" style="" class=""/><path d="m97.022 104.018h-59.609c-4.268 0-7.726-3.459-7.726-7.726s3.459-7.726 7.726-7.726h59.609c4.268 0 7.726 3.459 7.726 7.726 0 4.266-3.458 7.726-7.726 7.726z" fill="#f5f5f5" data-original="#685e68" style="" class=""/></g></g><g><path d="m295.753 33.295v75.914c0 18.389 14.907 33.295 33.295 33.295h77.789l21.438 38.725c4.945 8.932 18.533 5.419 18.533-4.79v-33.934h31.822c18.389 0 33.295-14.907 33.295-33.295v-75.915c.001-18.388-14.906-33.295-33.294-33.295h-149.583c-18.388 0-33.295 14.907-33.295 33.295z" fill="#ab99cd" data-original="#ffe177" style="" class=""/><path d="m353.041 142.505h-23.993c-18.389 0-33.295-14.907-33.295-33.295v-75.915c0-18.388 14.907-33.295 33.295-33.295h23.993c-18.389 0-33.295 14.907-33.295 33.295v75.914c0 18.389 14.906 33.296 33.295 33.296z" fill="#665f76" data-original="#ffd15b" style="" class=""/><g fill="#fe646f"><path d="m437.589 38.144h-109.283c-4.268 0-7.726-3.459-7.726-7.726s3.459-7.726 7.726-7.726h109.283c4.268 0 7.726 3.459 7.726 7.726s-3.459 7.726-7.726 7.726z" fill="#ffffff" data-original="#fe646f" style="" class=""/><path d="m437.589 71.081h-109.283c-4.268 0-7.726-3.459-7.726-7.726s3.459-7.726 7.726-7.726h109.283c4.268 0 7.726 3.459 7.726 7.726s-3.459 7.726-7.726 7.726z" fill="#ffffff" data-original="#fe646f" style="" class=""/><path d="m387.914 104.018h-59.609c-4.268 0-7.726-3.459-7.726-7.726s3.459-7.726 7.726-7.726h59.609c4.268 0 7.726 3.459 7.726 7.726.001 4.266-3.458 7.726-7.726 7.726z" fill="#ffffff" data-original="#fe646f" style="" class=""/></g></g><path d="m125.141 426.392c4.911-1.039 9.424-3.951 12.379-8.491l17.103-26.285c3.411-5.243 4.117-11.798 1.901-17.647-2.217-5.849-7.09-10.289-13.119-11.955l-66.591-18.391c-18.373-5.074-29.359-23.586-25.012-42.144 2.351-10.034 8.94-18.522 18.078-23.287 9.138-4.763 19.869-5.307 29.442-1.49l36.792 14.672c10.06 4.012 21.47-.891 25.482-10.953 4.013-10.061-.891-21.47-10.952-25.482l-36.792-14.672c-20.194-8.053-42.831-6.906-62.106 3.144-19.277 10.05-33.176 27.954-38.135 49.121-9.171 39.147 14.005 78.197 52.76 88.9l40.756 11.256-2.486 3.819c-5.908 9.079-3.336 21.228 5.743 27.135 4.539 2.955 9.847 3.789 14.757 2.75z" fill="#f9f7f8" data-original="#f9f7f8" style="" class=""/><path d="m132.09 417.121c1.422.922 2.912 1.638 4.442 2.157-2.922 3.756-7.002 6.178-11.385 7.11-4.913 1.04-10.218.206-14.758-2.746-9.08-5.913-11.65-18.063-5.746-27.134l2.491-3.824-40.765-11.258c-38.754-10.699-61.927-49.747-52.758-88.894 4.962-21.172 18.857-39.078 38.137-49.12 7.629-3.971 15.768-6.551 24.084-7.717-.794.382-1.598.775-2.383 1.187-19.279 10.051-33.175 27.958-38.136 49.13-9.169 39.147 14.003 78.195 52.758 88.894l40.764 11.258-2.491 3.825c-5.904 9.069-3.334 21.219 5.746 27.132z" fill="#dedbee" data-original="#dedbee" style="" class=""/><path d="m430.687 214.674c9.272 0 16.789 7.517 16.789 16.789v102.632c0 18.818-7.198 35.95-18.985 48.815-11.13 12.13-17.416 27.879-18.201 44.266-.059 1.177-.088 2.353-.088 3.53v18.71h-255.66v-18.71c0-1.177-.029-2.354-.088-3.53-.785-16.386-7.071-32.135-18.191-44.266-11.787-12.866-18.985-29.997-18.985-48.815v-102.632c0-9.272 7.517-16.789 16.789-16.789z" fill="#f9f7f8" data-original="#f9f7f8" style="" class=""/><path d="m410.29 427.176c-.059 1.177-.088 2.353-.088 3.53v18.71l-131.737 31.292-123.922-31.292v-18.71c0-1.177-.029-2.354-.088-3.53z" fill="#dedbee" data-original="#dedbee" style="" class=""/><path d="m177.836 469.979-23.291-20.56v-18.71c0-17.642-6.364-34.793-18.289-47.796-11.787-12.866-18.975-29.997-18.975-48.815v-102.633c0-9.272 7.517-16.789 16.789-16.789h51.041v119.421c0 18.818 7.188 35.95 18.975 48.815 11.925 13.003 18.289 30.154 18.289 47.796v18.71z" fill="#dedbee" data-original="#dedbee" style="" class=""/><g><path d="m72.838 449.419h419.085v16.215c0 25.608-20.759 46.367-46.367 46.367h-326.351c-25.608 0-46.367-20.759-46.367-46.367z" fill="#f9f7f8" data-original="#f9f7f8" style="" class=""/><path d="m196.164 512h-76.96c-25.614 0-46.374-20.76-46.374-46.364v-16.21h76.96v16.21c0 25.604 20.76 46.364 46.374 46.364z" fill="#dedbee" data-original="#dedbee" style="" class=""/></g></g></g></svg>
